<svg width="287" height="47" viewBox="0 0 287 47" fill="none" xmlns="http://www.w3.org/2000/svg">
<path d="M63.3534 28.0756V43.4864C63.3534 45.2858 61.8961 46.7431 60.0968 46.7431H59.9034C58.1041 46.7431 56.6418 45.2858 56.6418 43.4864V26.8414H23.431V43.4666C23.431 45.2659 21.9687 46.7282 20.1694 46.7282H19.8868C18.0875 46.7282 16.6252 45.2659 16.6252 43.4666V28.0161L23.3814 19.9067H56.5477L63.3534 28.0756Z" fill="#4CA9EE"/>
<path d="M23.3418 19.9067H23.3814L16.6252 28.0161V3.26161C16.6252 1.46228 18.0875 0 19.8868 0H20.0802C21.8795 0 23.3368 1.46228 23.3368 3.26161V19.9067H23.3418Z" fill="#29E7CD"/>
<path d="M63.3535 3.27649V28.0756L56.5477 19.9017V3.27649C56.5477 1.47715 58.01 0.0198364 59.8093 0.0198364H60.0968C61.8962 0.0198364 63.3535 1.47715 63.3535 3.27649Z" fill="#29E7CD"/>
<path d="M13.2943 9.86413V32.0163L7.43527 39.0501C6.90489 38.4701 6.58269 37.6968 6.58269 36.8542V26.8166H3.26161C1.46227 26.8166 0 25.3543 0 23.5549V23.2625C0 21.4632 1.46227 20.0009 3.26161 20.0009H6.54799V9.86909C6.54799 8.06976 8.01026 6.6075 9.8096 6.6075H10.0327C11.832 6.60254 13.2943 8.0648 13.2943 9.86413Z" fill="#29E7CD"/>
<path d="M79.9738 23.208V23.4657C79.9738 25.265 78.5115 26.7273 76.7121 26.7273H73.4505V36.8442C73.4505 37.7216 73.1036 38.5197 72.5385 39.1046L66.6597 32.051V9.86908C66.6597 8.06975 68.117 6.60748 69.9163 6.60748H70.1146C71.9139 6.60748 73.3762 8.06975 73.3762 9.86908V19.9463H76.7072C78.5164 19.9463 79.9738 21.4037 79.9738 23.208Z" fill="#29E7CD"/>
<path d="M13.2943 32.0163V36.8542C13.2943 38.6535 11.832 40.1158 10.0327 40.1158H9.84433C8.89262 40.1158 8.03012 39.7044 7.4353 39.0501L13.2943 32.0163Z" fill="#4CA9EE"/>
<path d="M72.5385 39.1045C71.9486 39.7192 71.1109 40.1058 70.1889 40.1058H69.9163C68.117 40.1058 66.6597 38.6485 66.6597 36.8492V32.051L72.5385 39.1045Z" fill="#4CA9EE"/>
<path d="M280.676 37.3201H279.938V37.0573H281.737V37.3201H280.994V39.4812H280.676V37.3201Z" fill="#4CA9EE"/>
<path d="M284.052 38.4155C284.032 38.0785 284.012 37.667 284.012 37.3696H284.002C283.918 37.6522 283.819 37.9545 283.695 38.2916L283.269 39.4714H283.031L282.634 38.3164C282.52 37.9744 282.426 37.6621 282.357 37.3746H282.347C282.337 37.6769 282.322 38.0785 282.297 38.4453L282.233 39.4862H281.935L282.104 37.0573H282.505L282.917 38.2321C283.016 38.5295 283.1 38.7972 283.16 39.05H283.17C283.234 38.8022 283.318 38.5345 283.427 38.2321L283.859 37.0573H284.26L284.409 39.4862H284.112L284.052 38.4155Z" fill="#4CA9EE"/>
<path d="M282.198 41.9944C284.298 41.9944 286 40.2922 286 38.1925C286 36.0928 284.298 34.3906 282.198 34.3906C280.098 34.3906 278.396 36.0928 278.396 38.1925C278.396 40.2922 280.098 41.9944 282.198 41.9944Z" stroke="#29E7CD" stroke-miterlimit="10"/>
<path d="M90.9184 13.6908V22.0679H100.589V13.6908H103.187V33.6966H100.589V24.3133H90.9184V33.6966H88.321V13.6908H90.9184Z" fill="#4CA9EE"/>
<path d="M109.056 26.99C109.105 30.5193 111.346 31.9717 113.968 31.9717C115.836 31.9717 116.977 31.6346 117.943 31.238L118.399 33.0919C117.487 33.5083 115.891 34.0089 113.611 34.0089C109.199 34.0089 106.547 31.0695 106.547 26.767C106.547 22.4149 109.11 19.0194 113.304 19.0194C117.988 19.0194 119.212 23.1286 119.212 25.7706C119.212 26.3208 119.182 26.7124 119.123 26.995H109.056V26.99ZM116.699 25.1114C116.724 23.4657 116.025 20.8881 113.1 20.8881C110.434 20.8881 109.303 23.2972 109.095 25.1114H116.699Z" fill="#4CA9EE"/>
<path d="M130.424 33.6966L130.196 31.8824H130.117C129.329 33.0027 127.782 34.0238 125.725 34.0238C122.826 34.0238 121.344 31.9667 121.344 29.9046C121.344 26.4299 124.427 24.5166 129.968 24.5562V24.2538C129.968 23.089 129.641 20.9278 126.702 20.9427C125.364 20.9427 123.971 21.3392 122.964 22.0133L122.37 20.2785C123.559 19.5101 125.294 19.0194 127.108 19.0194C131.495 19.0194 132.566 22.0183 132.566 24.8933V30.2615C132.566 31.4859 132.62 32.7102 132.784 33.6966H130.424ZM130.018 26.3655C127.193 26.306 123.961 26.8116 123.961 29.5874C123.961 31.3025 125.086 32.0857 126.399 32.0857C128.288 32.0857 129.483 30.896 129.899 29.6816C129.988 29.404 130.023 29.1066 130.023 28.8587V26.3655H130.018Z" fill="#4CA9EE"/>
<path d="M136.774 12.6251H139.372V33.6967H136.774V12.6251Z" fill="#4CA9EE"/>
<path d="M146.911 15.2126V19.3466H150.663V21.3244H146.911V29.062C146.911 30.8514 147.426 31.8626 148.884 31.8626C149.558 31.8626 150.054 31.7784 150.396 31.6743L150.515 33.657C150.009 33.8553 149.196 34.0139 148.18 34.0139C146.98 34.0139 145.984 33.6174 145.364 32.9085C144.646 32.1154 144.353 30.8514 144.353 29.1661V21.3194H142.133V19.3416H144.353V15.8818L146.911 15.2126Z" fill="#4CA9EE"/>
<path d="M153.598 12.6251H156.195V21.5871H156.255C156.686 20.8535 157.335 20.1942 158.133 19.7432C158.892 19.2921 159.819 19.0195 160.805 19.0195C162.738 19.0195 165.807 20.1992 165.807 25.1511V33.6967H163.209V25.4336C163.209 23.1188 162.332 21.1707 159.893 21.1707C158.183 21.1707 156.869 22.3653 156.374 23.778C156.24 24.1448 156.2 24.5414 156.2 25.0222V33.6967H153.603V12.6251H153.598Z" fill="#4CA9EE"/>
<path d="M179.036 13.6908V22.0679H188.707V13.6908H191.304V33.6966H188.707V24.3133H179.036V33.6966H176.439V13.6908H179.036Z" fill="#29E7CD"/>
<path d="M198.631 15.2869C198.631 16.1742 198.006 16.9078 196.97 16.9078C196.023 16.9078 195.394 16.1742 195.394 15.2869C195.394 14.3897 196.063 13.6611 197.02 13.6611C197.991 13.6611 198.626 14.3749 198.631 15.2869ZM195.716 33.6967V19.3416H198.313V33.6967H195.716Z" fill="#29E7CD"/>
<path d="M215.048 19.3416C214.973 20.3578 214.929 21.5226 214.929 23.2674V31.5999C214.929 34.921 214.25 36.9136 212.882 38.1727C211.474 39.4664 209.461 39.8927 207.652 39.8927C205.917 39.8927 204.024 39.4862 202.859 38.713L203.513 36.7054C204.47 37.3052 205.947 37.8554 207.736 37.8554C210.403 37.8554 212.361 36.4625 212.361 32.8242V31.2232H212.302C211.518 32.5714 209.952 33.6421 207.741 33.6421C204.162 33.6421 201.62 30.5986 201.62 26.6232C201.62 21.7556 204.787 19.0145 208.098 19.0145C210.592 19.0145 211.94 20.2983 212.574 21.4929H212.634L212.743 19.3416H215.048ZM212.331 24.9875C212.331 24.5612 212.292 24.1696 212.188 23.8226C211.707 22.3008 210.448 21.0468 208.52 21.0468C206.031 21.0468 204.242 23.1534 204.242 26.4894C204.242 29.2999 205.689 31.6594 208.49 31.6594C210.111 31.6594 211.563 30.6383 212.123 28.9678C212.262 28.5465 212.326 28.0359 212.326 27.5799V24.9875H212.331Z" fill="#29E7CD"/>
<path d="M219.251 12.6251H221.849V21.5871H221.908C222.339 20.8535 222.989 20.1942 223.787 19.7432C224.545 19.2921 225.472 19.0195 226.458 19.0195C228.392 19.0195 231.46 20.1992 231.46 25.1511V33.6967H228.863V25.4336C228.863 23.1188 227.985 21.1707 225.546 21.1707C223.836 21.1707 222.523 22.3653 222.027 23.778C221.893 24.1448 221.854 24.5414 221.854 25.0222V33.6967H219.256V12.6251H219.251Z" fill="#29E7CD"/>
<path d="M236.744 19.3416L238.672 26.6232C239.083 28.2243 239.45 29.7262 239.738 31.2033H239.812C240.129 29.7559 240.605 28.1995 241.096 26.643L243.441 19.3366H245.636L247.872 26.5141C248.383 28.2143 248.809 29.7361 249.141 31.1984H249.21C249.473 29.746 249.86 28.2342 250.326 26.534L252.378 19.3317H254.95L250.316 33.6867H247.946L245.765 26.8363C245.245 25.2254 244.843 23.7879 244.491 22.1026H244.432C244.07 23.8375 243.624 25.3245 243.118 26.8562L240.808 33.6817H238.419L234.092 19.3267H236.744V19.3416Z" fill="#29E7CD"/>
<path d="M265.523 33.6966L265.295 31.8824H265.216C264.428 33.0027 262.881 34.0238 260.824 34.0238C257.924 34.0238 256.442 31.9667 256.442 29.9046C256.442 26.4299 259.526 24.5166 265.067 24.5562V24.2538C265.067 23.089 264.74 20.9278 261.801 20.9427C260.467 20.9427 259.07 21.3392 258.063 22.0133L257.468 20.2785C258.658 19.5101 260.393 19.0194 262.207 19.0194C266.594 19.0194 267.665 22.0183 267.665 24.8933V30.2615C267.665 31.4859 267.719 32.7102 267.883 33.6966H265.523ZM265.122 26.3655C262.296 26.306 259.065 26.8116 259.065 29.5874C259.065 31.3025 260.19 32.0857 261.503 32.0857C263.392 32.0857 264.586 30.896 265.003 29.6816C265.092 29.404 265.127 29.1066 265.127 28.8587V26.3655H265.122Z" fill="#29E7CD"/>
<path d="M272.815 19.3416L275.952 27.8277C276.29 28.7745 276.641 29.8997 276.874 30.7572H276.949C277.207 29.9146 277.524 28.8141 277.866 27.7682L280.706 19.3416H283.477L279.551 29.5676C277.692 34.5046 276.413 37.0177 274.634 38.5692C273.345 39.6845 272.071 40.1306 271.432 40.2446L270.782 38.0636C271.437 37.8554 272.289 37.449 273.068 36.7897C273.771 36.2197 274.644 35.2085 275.249 33.88C275.382 33.6025 275.452 33.4141 275.452 33.2505C275.452 33.1018 275.407 32.8986 275.268 32.5814L269.974 19.3416H272.815Z" fill="#29E7CD"/>
</svg>
