<svg width="29" height="37" viewBox="0 0 29 37" fill="none" xmlns="http://www.w3.org/2000/svg">
<path d="M14.49 36.0694C16.4824 36.0694 18.1125 34.4393 18.1125 32.4469H10.8675C10.8675 34.4393 12.4976 36.0694 14.49 36.0694ZM25.3575 25.2019V16.1456C25.3575 10.5851 22.4052 5.93017 17.2069 4.69852V3.46688C17.2069 1.96354 15.9933 0.75 14.49 0.75C12.9867 0.75 11.7731 1.96354 11.7731 3.46688V4.69852C6.59295 5.93017 3.6225 10.567 3.6225 16.1456V25.2019L0 28.8244V30.6356H28.98V28.8244L25.3575 25.2019ZM21.735 27.0131H7.245V16.1456C7.245 11.6537 9.97999 7.995 14.49 7.995C19 7.995 21.735 11.6537 21.735 16.1456V27.0131Z" fill="#5A6885"/>
</svg>
